<svg width="3423" height="3423" viewBox="0 0 3423 3423" fill="none" xmlns="http://www.w3.org/2000/svg">
<path d="M2748.3 759.389C2555.8 673.833 2352.61 609.666 2138.72 566.889H2128.03C2106.64 609.666 2074.55 673.833 2053.17 727.305C1817.89 695.222 1593.3 695.222 1368.72 727.305C1347.33 673.833 1315.25 620.361 1293.86 566.889H1283.17C1069.28 598.972 866.082 663.139 673.582 759.389C288.582 1336.89 181.638 1903.69 235.11 2459.81V2470.5C491.777 2663 737.749 2769.94 983.721 2844.81H994.416C1047.89 2769.94 1101.36 2684.39 1144.14 2598.83V2588.14C1058.58 2556.06 983.721 2523.97 908.86 2481.19C898.166 2481.19 898.166 2470.5 908.86 2470.5C919.555 2459.81 940.943 2449.11 951.638 2438.42H962.332C1454.28 2663 1978.3 2663 2470.25 2438.42H2480.94C2491.64 2449.11 2513.03 2459.81 2523.72 2470.5C2534.42 2470.5 2523.72 2481.19 2523.72 2481.19C2448.86 2523.97 2374 2566.75 2288.44 2588.14C2288.44 2588.14 2277.75 2598.83 2288.44 2598.83C2331.22 2684.39 2384.69 2769.94 2438.17 2844.81H2448.86C2694.83 2769.94 2940.8 2652.31 3197.47 2470.5C3197.47 2470.5 3197.47 2470.5 3197.47 2459.81C3261.64 1818.14 3090.53 1262.03 2748.3 759.389ZM1219 2128.28C1069.28 2128.28 951.638 1989.25 951.638 1828.83C951.638 1668.42 1069.28 1529.39 1219 1529.39C1368.72 1529.39 1486.36 1668.42 1486.36 1828.83C1486.36 1989.25 1368.72 2128.28 1219 2128.28ZM2213.58 2128.28C2063.86 2128.28 1946.22 1989.25 1946.22 1828.83C1946.22 1668.42 2063.86 1529.39 2213.58 1529.39C2363.3 1529.39 2480.94 1668.42 2480.94 1828.83C2480.94 1989.25 2363.3 2128.28 2213.58 2128.28Z" fill="#050B14"/>
</svg>
