<svg width="3423" height="3423" viewBox="0 0 3423 3423" fill="none" xmlns="http://www.w3.org/2000/svg">
<path fill-rule="evenodd" clip-rule="evenodd" d="M1710.91 213.898C1355.46 213.945 1011.62 340.454 740.894 570.792C470.171 801.13 290.227 1120.27 233.251 1471.13C176.275 1821.99 245.985 2181.67 429.91 2485.84C613.835 2790.01 899.976 3018.82 1237.15 3131.34C1312.01 3145.24 1344.09 3099.26 1344.09 3059.69C1344.09 3020.12 1344.09 2930.29 1344.09 2805.16C928.079 2894.99 840.385 2604.11 840.385 2604.11C811.13 2512.44 749.559 2434.52 667.135 2384.87C531.315 2292.9 677.829 2293.97 677.829 2293.97C725.27 2300.67 770.552 2318.12 810.217 2345C849.882 2371.88 882.879 2407.46 906.69 2449.04C948.115 2523.33 1017.35 2578.14 1099.17 2601.4C1181 2624.67 1268.71 2614.48 1343.02 2573.09C1349.06 2497.21 1382.52 2426.12 1437.13 2373.11C1105.61 2334.61 755.899 2206.27 755.899 1633.05C753.474 1484.17 808.647 1340.11 909.899 1230.94C864.069 1101.99 869.427 960.367 924.871 835.245C924.871 835.245 1050 794.606 1336.61 988.175C1581.67 921.33 1840.16 921.33 2085.22 988.175C2370.76 794.606 2495.88 835.245 2495.88 835.245C2551.33 960.367 2556.69 1101.99 2510.86 1230.94C2612.11 1340.11 2667.28 1484.17 2664.86 1633.05C2664.86 2208.41 2315.15 2334.61 1981.48 2372.04C2017.22 2408.27 2044.79 2451.73 2062.31 2499.51C2079.84 2547.29 2086.92 2598.27 2083.08 2649.02C2083.08 2849.01 2083.08 3010.49 2083.08 3059.69C2083.08 3108.88 2109.82 3146.31 2190.02 3131.34C2527.64 3018.68 2814.08 2789.43 2997.97 2484.7C3181.87 2179.97 3251.19 1819.7 3193.52 1468.48C3135.84 1117.27 2954.93 798.09 2683.24 568.18C2411.54 338.27 2066.83 212.668 1710.91 213.898Z" fill="#050B14"/>
</svg>
