<svg width="3423" height="3423" viewBox="0 0 3423 3423" fill="none" xmlns="http://www.w3.org/2000/svg">
<path d="M2802.17 427.777H620.504C513.559 427.777 428.004 513.333 428.004 609.583V2801.94C428.004 2898.19 513.559 2983.75 620.504 2983.75H2802.17C2909.11 2983.75 2994.67 2898.19 2994.67 2801.94V609.583C2994.67 513.333 2909.11 427.777 2802.17 427.777ZM1187.31 2609.44H813.004V1390.28H1187.31V2609.44ZM1005.5 1219.17C887.865 1219.17 780.921 1122.92 780.921 994.583C780.921 866.25 877.171 770 1005.5 770C1123.14 770 1230.09 866.25 1230.09 994.583C1230.09 1122.92 1123.14 1219.17 1005.5 1219.17ZM2620.36 2598.75H2246.06V1999.86C2246.06 1860.83 2246.06 1668.33 2042.86 1668.33C1839.67 1668.33 1818.28 1828.75 1818.28 1978.47V2588.06H1443.98V1390.28H1796.89V1550.69H1807.59C1861.06 1454.44 1989.39 1347.5 2171.2 1347.5C2556.2 1347.5 2631.06 1604.17 2631.06 1935.69V2598.75H2620.36Z" fill="#050B14"/>
</svg>
