<svg width="2556" height="2556" viewBox="0 0 2556 2556" fill="none" xmlns="http://www.w3.org/2000/svg">
<path fill-rule="evenodd" clip-rule="evenodd" d="M2556 2172.6C2556 2384.36 2384.35 2556 2172.6 2556H383.4C171.644 2556 0 2384.36 0 2172.6V383.4C0 171.652 171.652 0 383.4 0H2172.6C2384.35 0 2556 171.652 2556 383.4V2172.6ZM1710.84 953.218C1504.55 963.995 1325.16 1026.53 1179.52 1167.82C1032.37 1310.56 965.197 1485.48 983.557 1702.31C960.388 1699.44 937.813 1696.49 915.651 1693.59C860.684 1686.41 808.259 1679.55 755.622 1675.12C730.113 1672.97 699.841 1676.02 678.235 1688.21C626.996 1717.12 577.271 1748.7 523.333 1782.96L523.327 1782.96C501.767 1796.65 479.534 1810.77 456.263 1825.32C460.893 1804.37 465.018 1784.24 469.014 1764.72C477.925 1721.22 486.2 1680.82 498.028 1641.5C510.629 1599.63 504.793 1576.33 466.223 1549.06C218.581 1374.22 114.194 1112.57 192.313 843.182C264.589 593.972 442.077 442.835 683.244 364.051C1012.41 256.529 1382.34 366.207 1582.5 627.549C1654.8 721.951 1699.13 827.905 1710.84 953.218ZM761.398 869.279C763.298 820.007 720.604 775.618 669.893 774.136C617.973 772.611 575.27 812.288 573.754 863.451C572.22 915.304 611.881 956.856 664.177 958.185C716.021 959.497 759.481 919.768 761.398 869.279ZM1256.76 774.102C1205.86 775.039 1162.85 818.389 1163.76 867.856C1164.68 919.129 1206.87 959.241 1259.21 958.611C1311.69 957.98 1351.48 917.442 1350.99 865.087C1350.56 813.694 1308.55 773.156 1256.76 774.102ZM2115.15 2209.76C2134.54 2219.99 2154.17 2230.34 2174.31 2239.31C2172.9 2233.7 2171.85 2228.08 2170.83 2222.58C2168.69 2211.09 2166.65 2200.13 2161.55 2190.84C2120.75 2116.45 2143.63 2070.02 2207.23 2013.59C2426.99 1818.62 2448.15 1510.54 2268.13 1278.45C2061.84 1012.48 1632.75 948.582 1340.16 1140.27C1010.96 1355.94 970.302 1759.48 1254.84 2022.66C1404.46 2161.02 1585.9 2217.47 1788.43 2196.75C1815.87 2193.94 1843.36 2186.05 1870.66 2178.21C1909.51 2167.06 1947.95 2156.02 1985.27 2159.92C2029.39 2164.53 2071.66 2186.82 2115.15 2209.76ZM1508.14 1445.8C1506.57 1486.88 1472.33 1519.42 1430.74 1519.38C1389.45 1519.33 1354.97 1486.22 1353.56 1445.29C1352.06 1402.45 1388.17 1365.47 1431.29 1365.66C1474.83 1365.84 1509.81 1402.31 1508.14 1445.8ZM1833.8 1439.35C1835.45 1398.58 1869.73 1365.55 1910.08 1365.83C1953.02 1366.13 1986.93 1402.21 1985.31 1445.91C1983.79 1487.44 1950.82 1519 1909.09 1518.86C1865.94 1518.75 1832.06 1482.95 1833.8 1439.35Z" fill="#050B14"/>
</svg>
